<?xml version="1.0" encoding="UTF-8" standalone="no"?>
<!-- Created with Inkscape (http://www.inkscape.org/) -->

<svg
   width="48"
   height="48"
   viewBox="0 0 48 48"
   version="1.1"
   id="svg1"
   xml:space="preserve"
   inkscape:version="1.3.2 (091e20ef0f, 2023-11-25)"
   sodipodi:docname="Coding.svg"
   inkscape:export-filename="extension_logo.svg"
   inkscape:export-xdpi="96"
   inkscape:export-ydpi="96"
   xmlns:inkscape="http://www.inkscape.org/namespaces/inkscape"
   xmlns:sodipodi="http://sodipodi.sourceforge.net/DTD/sodipodi-0.dtd"
   xmlns:xlink="http://www.w3.org/1999/xlink"
   xmlns="http://www.w3.org/2000/svg"
   xmlns:svg="http://www.w3.org/2000/svg"><sodipodi:namedview
     id="namedview1"
     pagecolor="#505050"
     bordercolor="#eeeeee"
     borderopacity="1"
     inkscape:showpageshadow="0"
     inkscape:pageopacity="0"
     inkscape:pagecheckerboard="0"
     inkscape:deskcolor="#505050"
     inkscape:document-units="px"
     showgrid="true"
     inkscape:zoom="11.976621"
     inkscape:cx="30.768277"
     inkscape:cy="27.762421"
     inkscape:window-width="3840"
     inkscape:window-height="1011"
     inkscape:window-x="0"
     inkscape:window-y="37"
     inkscape:window-maximized="1"
     inkscape:current-layer="g1"><inkscape:grid
       id="grid1"
       units="px"
       originx="0"
       originy="0"
       spacingx="1"
       spacingy="1"
       empcolor="#0099e5"
       empopacity="0.30196078"
       color="#0099e5"
       opacity="0.14901961"
       empspacing="5"
       dotted="false"
       gridanglex="30"
       gridanglez="30"
       visible="true" /></sodipodi:namedview><defs
     id="defs1"><path
       id="A"
       d="M44.5 20H24v8.5h11.8C34.7 33.9 30.1 37 24 37c-7.2 0-13-5.8-13-13s5.8-13 13-13c3.1 0 5.9 1.1 8.1 2.9l6.4-6.4C34.6 4.1 29.6 2 24 2 11.8 2 2 11.8 2 24s9.8 22 22 22c11 0 21-8 21-22 0-1.3-.2-2.7-.5-4z" /><path
       id="A-6"
       d="M44.5 20H24v8.5h11.8C34.7 33.9 30.1 37 24 37c-7.2 0-13-5.8-13-13s5.8-13 13-13c3.1 0 5.9 1.1 8.1 2.9l6.4-6.4C34.6 4.1 29.6 2 24 2 11.8 2 2 11.8 2 24s9.8 22 22 22c11 0 21-8 21-22 0-1.3-.2-2.7-.5-4z" /><path
       id="A-0"
       d="M44.5 20H24v8.5h11.8C34.7 33.9 30.1 37 24 37c-7.2 0-13-5.8-13-13s5.8-13 13-13c3.1 0 5.9 1.1 8.1 2.9l6.4-6.4C34.6 4.1 29.6 2 24 2 11.8 2 2 11.8 2 24s9.8 22 22 22c11 0 21-8 21-22 0-1.3-.2-2.7-.5-4z" /><clipPath
       id="B"><use
         xlink:href="#A"
         id="use1" /></clipPath><clipPath
       id="clipPath2"><use
         xlink:href="#A"
         id="use2" /></clipPath><clipPath
       id="clipPath3"><use
         xlink:href="#A"
         id="use3" /></clipPath><clipPath
       id="clipPath4"><use
         xlink:href="#A"
         id="use4" /></clipPath></defs><g
     inkscape:label="Layer 1"
     inkscape:groupmode="layer"
     id="layer1"><g
       style="fill:#ffffff;fill-opacity:1"
       id="g1"
       transform="matrix(0.05,0,0,0.05,0,49.998)"><path
         d="m 108.14752,-148.15192 q -38.409345,0 -65.761456,-27.35211 -27.352111,-27.35211 -27.352111,-65.76146 v -558.68143 q 0,-38.40934 27.352111,-65.76145 27.352111,-27.35212 65.761456,-27.35212 h 744.90857 q 38.40929,0 65.7614,27.35212 27.35211,27.35211 27.35211,65.76145 v 558.68143 q 0,38.40935 -27.35211,65.76146 -27.35211,27.35211 -65.7614,27.35211 z m 0,-93.11357 H 853.05609 V -706.83335 H 108.14752 Z"
         id="path1"
         style="fill:#ffffff;fill-opacity:1;stroke-width:1.16392" /><g
         transform="matrix(7.3413051,0,0,7.3413051,307.02974,-654.73674)"
         id="g5"><path
           d="M 0,37 V 11 l 17,13 z"
           clip-path="url(#B)"
           fill="#fbbc05"
           id="path1-6" /><path
           d="M 0,11 17,24 24,17.9 48,14 V 0 H 0 Z"
           clip-path="url(#B)"
           fill="#ea4335"
           id="path2" /><path
           d="M 0,37 30,14 37.9,15 48,0 V 48 H 0 Z"
           clip-path="url(#B)"
           fill="#34a853"
           id="path3" /><path
           d="M 48,48 17,24 13,21 48,11 Z"
           clip-path="url(#B)"
           fill="#4285f4"
           id="path4" /></g></g></g></svg>
